<svg width="219" height="68" viewBox="0 0 219 68" fill="none" xmlns="http://www.w3.org/2000/svg">
<path d="M0.406006 29.5112C0.406006 18.5248 9.31224 9.61859 20.2986 9.61859H24.4098V37.2472C24.4098 48.2336 15.5035 57.1399 4.51715 57.1399H0.406006V29.5112Z" fill="#6C3FEA"/>
<path d="M29.9804 18.8333C29.9804 13.7442 34.1059 9.61859 39.1951 9.61859C44.2842 9.61859 48.4098 13.7442 48.4098 18.8333C48.4098 23.9224 44.2842 28.048 39.1951 28.048C34.1059 28.048 29.9804 23.9224 29.9804 18.8333Z" fill="#FDAE38"/>
<path d="M53.9804 45.6186C53.9804 52.246 48.6078 57.6186 41.9804 57.6186C35.353 57.6186 29.9804 52.246 29.9804 45.6186V34.547C29.9804 34.0343 30.396 33.6186 30.9088 33.6186H41.9804C48.6078 33.6186 53.9804 38.9912 53.9804 45.6186Z" fill="#3EEDF9"/>
<path d="M107.518 12.5543V46.0121H99.775V32.2944H84.5756V46.0121H76.8325V12.5543H84.5756V25.7462H99.775V12.5543H107.518ZM138.424 20.2974V46.0121H131.35V42.9531C130.363 44.0683 129.184 44.9287 127.813 45.5341C126.443 46.1077 124.962 46.3945 123.368 46.3945C119.991 46.3945 117.314 45.4226 115.338 43.4789C113.363 41.5351 112.375 38.6514 112.375 34.8276V20.2974H119.831V33.7283C119.831 37.8707 121.568 39.9419 125.041 39.9419C126.826 39.9419 128.26 39.3683 129.343 38.2212C130.426 37.0422 130.968 35.3056 130.968 33.0113V20.2974H138.424ZM158.572 19.915C161.758 19.915 164.323 20.8709 166.267 22.7828C168.243 24.6947 169.231 27.5306 169.231 31.2907V46.0121H161.774V32.4378C161.774 30.3984 161.328 28.8849 160.436 27.8971C159.544 26.8774 158.253 26.3676 156.564 26.3676C154.684 26.3676 153.187 26.9571 152.071 28.1361C150.956 29.2832 150.399 31.0039 150.399 33.2981V46.0121H142.942V20.2974H150.064V23.3086C151.052 22.2252 152.279 21.3967 153.744 20.8231C155.21 20.2177 156.819 19.915 158.572 19.915ZM183.971 19.915C187.954 19.915 191.013 20.8709 193.148 22.7828C195.283 24.6628 196.351 27.5147 196.351 31.3384V46.0121H189.372V42.8097C187.97 45.1995 185.358 46.3945 181.534 46.3945C179.558 46.3945 177.837 46.0599 176.372 45.3907C174.938 44.7216 173.838 43.7975 173.074 42.6185C172.309 41.4395 171.927 40.1012 171.927 38.6036C171.927 36.2137 172.819 34.3337 174.603 32.9635C176.419 31.5934 179.208 30.9083 182.968 30.9083H188.894C188.894 29.2832 188.401 28.0405 187.413 27.1801C186.425 26.2879 184.943 25.8418 182.968 25.8418C181.597 25.8418 180.243 26.0649 178.905 26.511C177.598 26.9252 176.483 27.4988 175.559 28.2317L172.883 23.0218C174.285 22.034 175.957 21.2692 177.901 20.7275C179.877 20.1858 181.9 19.915 183.971 19.915ZM183.398 41.3758C184.672 41.3758 185.804 41.089 186.791 40.5154C187.779 39.91 188.48 39.0337 188.894 37.8866V35.2578H183.78C180.721 35.2578 179.192 36.2615 179.192 38.269C179.192 39.2249 179.558 39.9897 180.291 40.5632C181.056 41.1049 182.091 41.3758 183.398 41.3758ZM207.831 23.691C208.723 22.4482 209.918 21.5082 211.416 20.8709C212.945 20.2336 214.698 19.915 216.673 19.915V26.7977C215.845 26.734 215.287 26.7022 215.001 26.7022C212.866 26.7022 211.193 27.3076 209.982 28.5184C208.771 29.6974 208.166 31.4818 208.166 33.8717V46.0121H200.709V20.2974H207.831V23.691Z" fill="white"/>
<path opacity="0.6" d="M74.5382 52.0725H79.2383C80.4173 52.0725 81.4635 52.3062 82.3769 52.7735C83.2904 53.2409 83.9967 53.8994 84.4959 54.7492C85.0058 55.5883 85.2607 56.5548 85.2607 57.6488C85.2607 58.7428 85.0058 59.7147 84.4959 60.5644C83.9967 61.4035 83.2904 62.0568 82.3769 62.5241C81.4635 62.9915 80.4173 63.2251 79.2383 63.2251H74.5382V52.0725ZM79.1427 61.839C80.0455 61.839 80.8368 61.6638 81.5166 61.3133C82.207 60.9627 82.7381 60.4742 83.1098 59.8475C83.4816 59.2102 83.6674 58.4773 83.6674 57.6488C83.6674 56.8203 83.4816 56.0928 83.1098 55.4661C82.7381 54.8288 82.207 54.3349 81.5166 53.9844C80.8368 53.6339 80.0455 53.4586 79.1427 53.4586H76.1315V61.839H79.1427ZM95.1096 59.0509C95.1096 59.1677 95.0989 59.3217 95.0777 59.5129H88.2268C88.3224 60.2564 88.6464 60.8565 89.1987 61.3133C89.7616 61.7594 90.4573 61.9824 91.2858 61.9824C92.2949 61.9824 93.1074 61.6425 93.7235 60.9627L94.5679 61.9505C94.1855 62.3966 93.7075 62.7365 93.134 62.9702C92.571 63.2039 91.939 63.3207 91.238 63.3207C90.3458 63.3207 89.5545 63.1402 88.8641 62.779C88.1737 62.4073 87.6373 61.8921 87.2549 61.2336C86.8832 60.5751 86.6973 59.8316 86.6973 59.0031C86.6973 58.1852 86.8779 57.447 87.239 56.7885C87.6108 56.13 88.1153 55.6201 88.7526 55.259C89.4005 54.8872 90.1281 54.7014 90.9353 54.7014C91.7425 54.7014 92.4595 54.8872 93.0862 55.259C93.7235 55.6201 94.2174 56.13 94.5679 56.7885C94.929 57.447 95.1096 58.2011 95.1096 59.0509ZM90.9353 55.9919C90.2024 55.9919 89.5864 56.2149 89.0872 56.661C88.5986 57.1071 88.3118 57.6913 88.2268 58.4136H93.6438C93.5588 57.7019 93.2667 57.1231 92.7675 56.677C92.2789 56.2202 91.6682 55.9919 90.9353 55.9919ZM99.6551 63.3207C98.9647 63.3207 98.3009 63.2304 97.6636 63.0499C97.0263 62.8587 96.5271 62.6197 96.1659 62.3329L96.8032 61.1221C97.175 61.3876 97.6264 61.6 98.1575 61.7594C98.6886 61.9187 99.2249 61.9983 99.7666 61.9983C101.105 61.9983 101.774 61.616 101.774 60.8512C101.774 60.5963 101.684 60.3945 101.503 60.2458C101.323 60.0971 101.094 59.9909 100.818 59.9271C100.553 59.8528 100.17 59.7731 99.6711 59.6882C98.9913 59.5819 98.4336 59.4598 97.9982 59.3217C97.5733 59.1836 97.2069 58.95 96.8988 58.6207C96.5908 58.2914 96.4368 57.8294 96.4368 57.2346C96.4368 56.4698 96.7554 55.8591 97.3927 55.4024C98.03 54.935 98.8851 54.7014 99.9578 54.7014C100.521 54.7014 101.084 54.7704 101.647 54.9085C102.21 55.0466 102.672 55.2324 103.033 55.4661L102.38 56.677C101.689 56.2309 100.877 56.0078 99.9419 56.0078C99.294 56.0078 98.8001 56.114 98.4602 56.3264C98.1203 56.5389 97.9504 56.8203 97.9504 57.1709C97.9504 57.447 98.046 57.6648 98.2371 57.8241C98.4283 57.9834 98.662 58.1002 98.9382 58.1746C99.2249 58.2489 99.6233 58.3339 100.133 58.4295C100.813 58.5463 101.36 58.6738 101.774 58.8119C102.199 58.9393 102.56 59.1624 102.858 59.481C103.155 59.7997 103.304 60.2458 103.304 60.8194C103.304 61.5841 102.974 62.1948 102.316 62.6516C101.668 63.0977 100.781 63.3207 99.6551 63.3207ZM105.215 54.781H106.745V63.2251H105.215V54.781ZM105.98 53.1559C105.682 53.1559 105.433 53.0603 105.231 52.8691C105.04 52.678 104.944 52.4443 104.944 52.1681C104.944 51.892 105.04 51.6583 105.231 51.4671C105.433 51.2653 105.682 51.1644 105.98 51.1644C106.277 51.1644 106.522 51.26 106.713 51.4512C106.915 51.6317 107.015 51.8601 107.015 52.1363C107.015 52.423 106.915 52.6673 106.713 52.8691C106.522 53.0603 106.277 53.1559 105.98 53.1559ZM117.743 54.781V62.078C117.743 63.5544 117.376 64.6431 116.643 65.3441C115.91 66.0558 114.816 66.4116 113.361 66.4116C112.565 66.4116 111.805 66.3001 111.083 66.077C110.361 65.8646 109.776 65.5566 109.33 65.1529L110.063 63.9739C110.456 64.3138 110.94 64.5794 111.513 64.7706C112.097 64.9724 112.697 65.0733 113.313 65.0733C114.301 65.0733 115.029 64.8396 115.496 64.3723C115.974 63.9049 116.213 63.1933 116.213 62.2373V61.5682C115.852 62.0037 115.406 62.3329 114.875 62.556C114.354 62.7684 113.786 62.8746 113.17 62.8746C112.363 62.8746 111.63 62.7047 110.971 62.3648C110.323 62.0143 109.814 61.531 109.442 60.9149C109.07 60.2883 108.884 59.5766 108.884 58.78C108.884 57.9834 109.07 57.2771 109.442 56.661C109.814 56.0344 110.323 55.5511 110.971 55.2112C111.63 54.8713 112.363 54.7014 113.17 54.7014C113.807 54.7014 114.397 54.8182 114.939 55.0519C115.491 55.2855 115.942 55.6307 116.293 56.0875V54.781H117.743ZM113.345 61.5363C113.898 61.5363 114.392 61.4195 114.827 61.1858C115.273 60.9521 115.618 60.6282 115.863 60.2139C116.118 59.7891 116.245 59.3111 116.245 58.78C116.245 57.9622 115.974 57.3036 115.432 56.8044C114.891 56.2946 114.195 56.0397 113.345 56.0397C112.485 56.0397 111.784 56.2946 111.242 56.8044C110.701 57.3036 110.43 57.9622 110.43 58.78C110.43 59.3111 110.552 59.7891 110.796 60.2139C111.051 60.6282 111.396 60.9521 111.832 61.1858C112.278 61.4195 112.782 61.5363 113.345 61.5363ZM125.174 54.7014C126.247 54.7014 127.096 55.0147 127.723 55.6414C128.36 56.2574 128.679 57.1655 128.679 58.3658V63.2251H127.15V58.541C127.15 57.7232 126.953 57.1071 126.56 56.6929C126.167 56.2787 125.604 56.0715 124.871 56.0715C124.043 56.0715 123.389 56.3158 122.912 56.8044C122.434 57.2824 122.195 57.9728 122.195 58.8756V63.2251H120.665V54.781H122.131V56.0556C122.439 55.6201 122.853 55.2855 123.374 55.0519C123.905 54.8182 124.505 54.7014 125.174 54.7014ZM139.262 63.3526C138.422 63.3526 137.61 63.2251 136.824 62.9702C136.049 62.7047 135.438 62.3648 134.992 61.9505L135.581 60.7078C136.006 61.0902 136.548 61.4035 137.206 61.6478C137.875 61.8815 138.561 61.9983 139.262 61.9983C140.186 61.9983 140.876 61.8443 141.333 61.5363C141.789 61.2177 142.018 60.7981 142.018 60.2777C142.018 59.8953 141.89 59.5873 141.635 59.3536C141.391 59.1093 141.083 58.9234 140.711 58.796C140.35 58.6685 139.835 58.5251 139.166 58.3658C138.327 58.164 137.647 57.9622 137.127 57.7604C136.617 57.5585 136.176 57.2505 135.804 56.8363C135.443 56.4114 135.263 55.8432 135.263 55.1315C135.263 54.5367 135.417 54.0003 135.725 53.5224C136.043 53.0444 136.521 52.662 137.158 52.3752C137.796 52.0885 138.587 51.9451 139.532 51.9451C140.191 51.9451 140.839 52.03 141.476 52.2C142.113 52.3699 142.66 52.6142 143.117 52.9329L142.591 54.2075C142.124 53.9101 141.625 53.687 141.094 53.5383C140.563 53.379 140.042 53.2993 139.532 53.2993C138.63 53.2993 137.95 53.4639 137.493 53.7932C137.047 54.1225 136.824 54.5473 136.824 55.0678C136.824 55.4502 136.951 55.7635 137.206 56.0078C137.461 56.2415 137.775 56.4274 138.146 56.5654C138.529 56.6929 139.044 56.831 139.692 56.9797C140.531 57.1815 141.205 57.3833 141.715 57.5851C142.225 57.7869 142.66 58.0949 143.022 58.5092C143.393 58.9234 143.579 59.481 143.579 60.1821C143.579 60.7662 143.42 61.3026 143.101 61.7912C142.783 62.2692 142.299 62.6516 141.651 62.9383C141.003 63.2145 140.207 63.3526 139.262 63.3526ZM150.432 62.7312C150.209 62.9224 149.932 63.0711 149.603 63.1773C149.274 63.2729 148.934 63.3207 148.583 63.3207C147.734 63.3207 147.075 63.0924 146.608 62.6356C146.14 62.1789 145.907 61.5257 145.907 60.676V56.0397H144.473V54.781H145.907V52.9329H147.436V54.781H149.858V56.0397H147.436V60.6122C147.436 61.069 147.548 61.4195 147.771 61.6638C148.005 61.9081 148.334 62.0302 148.759 62.0302C149.226 62.0302 149.624 61.8974 149.954 61.6319L150.432 62.7312ZM160.151 54.781V63.2251H158.701V61.9505C158.393 62.386 157.984 62.7259 157.475 62.9702C156.975 63.2039 156.428 63.3207 155.834 63.3207C154.708 63.3207 153.821 63.0127 153.173 62.3966C152.525 61.77 152.201 60.8512 152.201 59.6404V54.781H153.731V59.4651C153.731 60.283 153.927 60.9043 154.32 61.3292C154.713 61.7434 155.276 61.9505 156.009 61.9505C156.816 61.9505 157.453 61.7063 157.921 61.2177C158.388 60.7291 158.622 60.0387 158.622 59.1465V54.781H160.151ZM171.029 51.4034V63.2251H169.563V61.8868C169.223 62.3542 168.793 62.71 168.273 62.9543C167.752 63.1986 167.179 63.3207 166.552 63.3207C165.734 63.3207 165.001 63.1402 164.354 62.779C163.706 62.4179 163.196 61.9134 162.824 61.2655C162.463 60.6069 162.282 59.8528 162.282 59.0031C162.282 58.1534 162.463 57.4045 162.824 56.7566C163.196 56.1087 163.706 55.6042 164.354 55.2431C165.001 54.8819 165.734 54.7014 166.552 54.7014C167.158 54.7014 167.715 54.8182 168.225 55.0519C168.735 55.2749 169.16 55.6095 169.5 56.0556V51.4034H171.029ZM166.68 61.9824C167.211 61.9824 167.694 61.8603 168.129 61.616C168.565 61.3611 168.905 61.0105 169.149 60.5644C169.393 60.1077 169.516 59.5873 169.516 59.0031C169.516 58.4189 169.393 57.9037 169.149 57.4576C168.905 57.0009 168.565 56.6504 168.129 56.4061C167.694 56.1618 167.211 56.0397 166.68 56.0397C166.138 56.0397 165.649 56.1618 165.214 56.4061C164.789 56.6504 164.449 57.0009 164.194 57.4576C163.95 57.9037 163.828 58.4189 163.828 59.0031C163.828 59.5873 163.95 60.1077 164.194 60.5644C164.449 61.0105 164.789 61.3611 165.214 61.616C165.649 61.8603 166.138 61.9824 166.68 61.9824ZM173.923 54.781H175.453V63.2251H173.923V54.781ZM174.688 53.1559C174.39 53.1559 174.141 53.0603 173.939 52.8691C173.748 52.678 173.652 52.4443 173.652 52.1681C173.652 51.892 173.748 51.6583 173.939 51.4671C174.141 51.2653 174.39 51.1644 174.688 51.1644C174.985 51.1644 175.23 51.26 175.421 51.4512C175.623 51.6317 175.723 51.8601 175.723 52.1363C175.723 52.423 175.623 52.6673 175.421 52.8691C175.23 53.0603 174.985 53.1559 174.688 53.1559ZM181.99 63.3207C181.15 63.3207 180.396 63.1348 179.727 62.7631C179.058 62.3913 178.532 61.8815 178.15 61.2336C177.778 60.5751 177.592 59.8316 177.592 59.0031C177.592 58.1746 177.778 57.4364 178.15 56.7885C178.532 56.13 179.058 55.6201 179.727 55.259C180.396 54.8872 181.15 54.7014 181.99 54.7014C182.829 54.7014 183.577 54.8872 184.236 55.259C184.905 55.6201 185.426 56.13 185.797 56.7885C186.18 57.4364 186.371 58.1746 186.371 59.0031C186.371 59.8316 186.18 60.5751 185.797 61.2336C185.426 61.8815 184.905 62.3913 184.236 62.7631C183.577 63.1348 182.829 63.3207 181.99 63.3207ZM181.99 61.9824C182.531 61.9824 183.015 61.8603 183.439 61.616C183.875 61.3611 184.215 61.0105 184.459 60.5644C184.703 60.1077 184.826 59.5873 184.826 59.0031C184.826 58.4189 184.703 57.9037 184.459 57.4576C184.215 57.0009 183.875 56.6504 183.439 56.4061C183.015 56.1618 182.531 56.0397 181.99 56.0397C181.448 56.0397 180.959 56.1618 180.524 56.4061C180.099 56.6504 179.759 57.0009 179.504 57.4576C179.26 57.9037 179.138 58.4189 179.138 59.0031C179.138 59.5873 179.26 60.1077 179.504 60.5644C179.759 61.0105 180.099 61.3611 180.524 61.616C180.959 61.8603 181.448 61.9824 181.99 61.9824ZM190.908 63.3207C190.218 63.3207 189.554 63.2304 188.916 63.0499C188.279 62.8587 187.78 62.6197 187.419 62.3329L188.056 61.1221C188.428 61.3876 188.879 61.6 189.41 61.7594C189.941 61.9187 190.478 61.9983 191.019 61.9983C192.358 61.9983 193.027 61.616 193.027 60.8512C193.027 60.5963 192.937 60.3945 192.756 60.2458C192.575 60.0971 192.347 59.9909 192.071 59.9271C191.805 59.8528 191.423 59.7731 190.924 59.6882C190.244 59.5819 189.686 59.4598 189.251 59.3217C188.826 59.1836 188.46 58.95 188.152 58.6207C187.844 58.2914 187.69 57.8294 187.69 57.2346C187.69 56.4698 188.008 55.8591 188.646 55.4024C189.283 54.935 190.138 54.7014 191.211 54.7014C191.774 54.7014 192.337 54.7704 192.899 54.9085C193.462 55.0466 193.924 55.2324 194.286 55.4661L193.632 56.677C192.942 56.2309 192.129 56.0078 191.195 56.0078C190.547 56.0078 190.053 56.114 189.713 56.3264C189.373 56.5389 189.203 56.8203 189.203 57.1709C189.203 57.447 189.299 57.6648 189.49 57.8241C189.681 57.9834 189.915 58.1002 190.191 58.1746C190.478 58.2489 190.876 58.3339 191.386 58.4295C192.066 58.5463 192.613 58.6738 193.027 58.8119C193.452 58.9393 193.813 59.1624 194.11 59.481C194.408 59.7997 194.556 60.2458 194.556 60.8194C194.556 61.5841 194.227 62.1948 193.569 62.6516C192.921 63.0977 192.034 63.3207 190.908 63.3207Z" fill="white"/>
</svg>
