<svg width="215" height="68" viewBox="0 0 215 68" fill="none" xmlns="http://www.w3.org/2000/svg">
<path d="M0.618164 30.182C0.618164 21.0223 8.04362 13.5968 17.2034 13.5968H20.631V36.6318C20.631 45.7916 13.2055 53.2171 4.04578 53.2171H0.618164V30.182Z" fill="#6C3FEA"/>
<rect x="25.2754" y="13.5968" width="15.3653" height="15.3653" rx="7.68264" fill="#FDAE38"/>
<path d="M45.2852 43.6114C45.2852 49.1369 40.8058 53.6162 35.2803 53.6162V53.6162C29.7548 53.6162 25.2755 49.1369 25.2755 43.6114L25.2755 34.3806C25.2755 33.9531 25.622 33.6065 26.0495 33.6065L35.2803 33.6065C40.8058 33.6065 45.2852 38.0858 45.2852 43.6114V43.6114Z" fill="#3EEDF9"/>
<path d="M103.935 12.5422V46H96.1919V32.2823H80.9925V46H73.2494V12.5422H80.9925V25.7341H96.1919V12.5422H103.935ZM134.841 20.2853V46H127.767V42.941C126.779 44.0563 125.6 44.9166 124.23 45.522C122.86 46.0956 121.378 46.3824 119.785 46.3824C116.408 46.3824 113.731 45.4105 111.755 43.4668C109.78 41.523 108.792 38.6393 108.792 34.8155V20.2853H116.248V33.7162C116.248 37.8586 117.985 39.9298 121.458 39.9298C123.243 39.9298 124.676 39.3562 125.76 38.2091C126.843 37.0301 127.385 35.2935 127.385 32.9993V20.2853H134.841ZM154.989 19.9029C158.175 19.9029 160.74 20.8589 162.684 22.7707C164.66 24.6826 165.647 27.5185 165.647 31.2786V46H158.191V32.4257C158.191 30.3864 157.745 28.8728 156.853 27.885C155.961 26.8653 154.67 26.3555 152.981 26.3555C151.101 26.3555 149.604 26.945 148.488 28.124C147.373 29.2711 146.815 30.9918 146.815 33.286V46H139.359V20.2853H146.481V23.2965C147.469 22.2131 148.695 21.3846 150.161 20.8111C151.627 20.2056 153.236 19.9029 154.989 19.9029ZM180.388 19.9029C184.371 19.9029 187.43 20.8589 189.565 22.7707C191.7 24.6507 192.768 27.5026 192.768 31.3264V46H185.789V42.7976C184.387 45.1875 181.774 46.3824 177.951 46.3824C175.975 46.3824 174.254 46.0478 172.789 45.3786C171.355 44.7095 170.255 43.7854 169.491 42.6064C168.726 41.4274 168.343 40.0891 168.343 38.5915C168.343 36.2016 169.236 34.3216 171.02 32.9515C172.836 31.5813 175.625 30.8962 179.385 30.8962H185.311C185.311 29.2711 184.817 28.0284 183.83 27.168C182.842 26.2758 181.36 25.8297 179.385 25.8297C178.014 25.8297 176.66 26.0528 175.322 26.4989C174.015 26.9131 172.9 27.4867 171.976 28.2196L169.299 23.0097C170.701 22.0219 172.374 21.2572 174.318 20.7155C176.294 20.1738 178.317 19.9029 180.388 19.9029ZM179.815 41.3637C181.089 41.3637 182.22 41.0769 183.208 40.5034C184.196 39.8979 184.897 39.0217 185.311 37.8745V35.2457H180.197C177.138 35.2457 175.609 36.2494 175.609 38.2569C175.609 39.2128 175.975 39.9776 176.708 40.5512C177.473 41.0929 178.508 41.3637 179.815 41.3637ZM204.248 23.6789C205.14 22.4361 206.335 21.4961 207.833 20.8589C209.362 20.2216 211.115 19.9029 213.09 19.9029V26.7857C212.262 26.7219 211.704 26.6901 211.417 26.6901C209.282 26.6901 207.61 27.2955 206.399 28.5063C205.188 29.6853 204.582 31.4698 204.582 33.8596V46H197.126V20.2853H204.248V23.6789Z" fill="white"/>
<path opacity="0.6" d="M70.9551 52.0604H75.6551C76.8341 52.0604 77.8804 52.2941 78.7938 52.7614C79.7073 53.2288 80.4136 53.8873 80.9128 54.737C81.4226 55.5761 81.6775 56.5427 81.6775 57.6367C81.6775 58.7307 81.4226 59.7026 80.9128 60.5523C80.4136 61.3914 79.7073 62.0446 78.7938 62.512C77.8804 62.9793 76.8341 63.213 75.6551 63.213H70.9551V52.0604ZM75.5595 61.8269C76.4624 61.8269 77.2537 61.6516 77.9335 61.3011C78.6239 60.9506 79.1549 60.462 79.5267 59.8354C79.8984 59.1981 80.0843 58.4652 80.0843 57.6367C80.0843 56.8082 79.8984 56.0807 79.5267 55.454C79.1549 54.8167 78.6239 54.3228 77.9335 53.9723C77.2537 53.6218 76.4624 53.4465 75.5595 53.4465H72.5483V61.8269H75.5595ZM91.5264 59.0388C91.5264 59.1556 91.5158 59.3096 91.4946 59.5008H84.6437C84.7393 60.2443 85.0632 60.8444 85.6156 61.3011C86.1785 61.7472 86.8742 61.9703 87.7027 61.9703C88.7117 61.9703 89.5243 61.6304 90.1403 60.9506L90.9847 61.9384C90.6024 62.3845 90.1244 62.7244 89.5508 62.9581C88.9879 63.1918 88.3559 63.3086 87.6549 63.3086C86.7627 63.3086 85.9714 63.128 85.281 62.7669C84.5906 62.3952 84.0542 61.88 83.6718 61.2215C83.3001 60.5629 83.1142 59.8194 83.1142 58.991C83.1142 58.1731 83.2948 57.4349 83.6559 56.7764C84.0276 56.1178 84.5322 55.608 85.1695 55.2469C85.8174 54.8751 86.5449 54.6892 87.3522 54.6892C88.1594 54.6892 88.8764 54.8751 89.503 55.2469C90.1403 55.608 90.6342 56.1178 90.9847 56.7764C91.3459 57.4349 91.5264 58.189 91.5264 59.0388ZM87.3522 55.9798C86.6193 55.9798 86.0032 56.2028 85.504 56.6489C85.0154 57.095 84.7287 57.6792 84.6437 58.4015H90.0607C89.9757 57.6898 89.6836 57.1109 89.1844 56.6648C88.6958 56.2081 88.0851 55.9798 87.3522 55.9798ZM96.072 63.3086C95.3816 63.3086 94.7177 63.2183 94.0805 63.0378C93.4432 62.8466 92.944 62.6076 92.5828 62.3208L93.2201 61.11C93.5919 61.3755 94.0433 61.5879 94.5744 61.7472C95.1054 61.9066 95.6418 61.9862 96.1835 61.9862C97.5218 61.9862 98.191 61.6039 98.191 60.8391C98.191 60.5842 98.1007 60.3824 97.9201 60.2337C97.7396 60.085 97.5112 59.9788 97.235 59.915C96.9695 59.8407 96.5871 59.761 96.0879 59.676C95.4081 59.5698 94.8505 59.4477 94.415 59.3096C93.9902 59.1715 93.6237 58.9378 93.3157 58.6086C93.0077 58.2793 92.8537 57.8173 92.8537 57.2225C92.8537 56.4577 93.1723 55.847 93.8096 55.3903C94.4469 54.9229 95.3019 54.6892 96.3747 54.6892C96.9376 54.6892 97.5006 54.7583 98.0635 54.8964C98.6265 55.0344 99.0885 55.2203 99.4496 55.454L98.7964 56.6648C98.106 56.2187 97.2935 55.9957 96.3588 55.9957C95.7109 55.9957 95.217 56.1019 94.8771 56.3143C94.5372 56.5268 94.3672 56.8082 94.3672 57.1587C94.3672 57.4349 94.4628 57.6526 94.654 57.812C94.8452 57.9713 95.0789 58.0881 95.355 58.1625C95.6418 58.2368 96.0401 58.3218 96.55 58.4174C97.2297 58.5342 97.7767 58.6617 98.191 58.7998C98.6158 58.9272 98.977 59.1503 99.2744 59.4689C99.5718 59.7876 99.7205 60.2337 99.7205 60.8072C99.7205 61.572 99.3912 62.1827 98.7327 62.6395C98.0848 63.0856 97.1979 63.3086 96.072 63.3086ZM101.632 54.7689H103.161V63.213H101.632V54.7689ZM102.397 53.1438C102.099 53.1438 101.85 53.0482 101.648 52.857C101.457 52.6658 101.361 52.4322 101.361 52.156C101.361 51.8798 101.457 51.6462 101.648 51.455C101.85 51.2532 102.099 51.1523 102.397 51.1523C102.694 51.1523 102.938 51.2479 103.13 51.4391C103.331 51.6196 103.432 51.848 103.432 52.1241C103.432 52.4109 103.331 52.6552 103.13 52.857C102.938 53.0482 102.694 53.1438 102.397 53.1438ZM114.159 54.7689V62.0659C114.159 63.5423 113.793 64.631 113.06 65.332C112.327 66.0436 111.233 66.3995 109.778 66.3995C108.981 66.3995 108.222 66.2879 107.5 66.0649C106.778 65.8525 106.193 65.5444 105.747 65.1408L106.48 63.9618C106.873 64.3017 107.356 64.5673 107.93 64.7584C108.514 64.9603 109.114 65.0612 109.73 65.0612C110.718 65.0612 111.446 64.8275 111.913 64.3601C112.391 63.8928 112.63 63.1811 112.63 62.2252V61.5561C112.269 61.9915 111.823 62.3208 111.292 62.5439C110.771 62.7563 110.203 62.8625 109.587 62.8625C108.78 62.8625 108.047 62.6926 107.388 62.3527C106.74 62.0022 106.231 61.5189 105.859 60.9028C105.487 60.2762 105.301 59.5645 105.301 58.7679C105.301 57.9713 105.487 57.265 105.859 56.6489C106.231 56.0222 106.74 55.539 107.388 55.1991C108.047 54.8592 108.78 54.6892 109.587 54.6892C110.224 54.6892 110.814 54.8061 111.355 55.0398C111.908 55.2734 112.359 55.6186 112.71 56.0753V54.7689H114.159ZM109.762 61.5242C110.315 61.5242 110.808 61.4074 111.244 61.1737C111.69 60.94 112.035 60.6161 112.279 60.2018C112.534 59.7769 112.662 59.299 112.662 58.7679C112.662 57.95 112.391 57.2915 111.849 56.7923C111.308 56.2825 110.612 56.0276 109.762 56.0276C108.902 56.0276 108.201 56.2825 107.659 56.7923C107.117 57.2915 106.847 57.95 106.847 58.7679C106.847 59.299 106.969 59.7769 107.213 60.2018C107.468 60.6161 107.813 60.94 108.249 61.1737C108.695 61.4074 109.199 61.5242 109.762 61.5242ZM121.591 54.6892C122.664 54.6892 123.513 55.0026 124.14 55.6292C124.777 56.2453 125.096 57.1534 125.096 58.3537V63.213H123.566V58.5289C123.566 57.7111 123.37 57.095 122.977 56.6808C122.584 56.2665 122.021 56.0594 121.288 56.0594C120.46 56.0594 119.806 56.3037 119.328 56.7923C118.85 57.2703 118.611 57.9607 118.611 58.8635V63.213H117.082V54.7689H118.548V56.0435C118.856 55.608 119.27 55.2734 119.79 55.0398C120.322 54.8061 120.922 54.6892 121.591 54.6892ZM135.678 63.3405C134.839 63.3405 134.027 63.213 133.241 62.9581C132.465 62.6926 131.855 62.3527 131.409 61.9384L131.998 60.6957C132.423 61.0781 132.965 61.3914 133.623 61.6357C134.292 61.8694 134.977 61.9862 135.678 61.9862C136.602 61.9862 137.293 61.8322 137.75 61.5242C138.206 61.2055 138.435 60.786 138.435 60.2655C138.435 59.8832 138.307 59.5751 138.052 59.3415C137.808 59.0972 137.5 58.9113 137.128 58.7838C136.767 58.6564 136.252 58.513 135.583 58.3537C134.744 58.1519 134.064 57.95 133.543 57.7482C133.034 57.5464 132.593 57.2384 132.221 56.8242C131.86 56.3993 131.679 55.8311 131.679 55.1194C131.679 54.5246 131.833 53.9882 132.141 53.5103C132.46 53.0323 132.938 52.6499 133.575 52.3631C134.213 52.0763 135.004 51.933 135.949 51.933C136.608 51.933 137.256 52.0179 137.893 52.1879C138.53 52.3578 139.077 52.6021 139.534 52.9208L139.008 54.1953C138.541 53.8979 138.042 53.6749 137.511 53.5262C136.98 53.3669 136.459 53.2872 135.949 53.2872C135.046 53.2872 134.367 53.4518 133.91 53.7811C133.464 54.1104 133.241 54.5352 133.241 55.0557C133.241 55.4381 133.368 55.7514 133.623 55.9957C133.878 56.2294 134.191 56.4152 134.563 56.5533C134.946 56.6808 135.461 56.8189 136.109 56.9676C136.948 57.1694 137.622 57.3712 138.132 57.573C138.642 57.7748 139.077 58.0828 139.438 58.4971C139.81 58.9113 139.996 59.4689 139.996 60.1699C139.996 60.7541 139.837 61.2905 139.518 61.7791C139.199 62.2571 138.716 62.6395 138.068 62.9262C137.42 63.2024 136.624 63.3405 135.678 63.3405ZM146.848 62.7191C146.625 62.9103 146.349 63.059 146.02 63.1652C145.691 63.2608 145.351 63.3086 145 63.3086C144.151 63.3086 143.492 63.0802 143.025 62.6235C142.557 62.1668 142.324 61.5136 142.324 60.6638V56.0276H140.89V54.7689H142.324V52.9208H143.853V54.7689H146.275V56.0276H143.853V60.6001C143.853 61.0568 143.965 61.4074 144.188 61.6516C144.421 61.8959 144.751 62.0181 145.176 62.0181C145.643 62.0181 146.041 61.8853 146.37 61.6198L146.848 62.7191ZM156.568 54.7689V63.213H155.118V61.9384C154.81 62.3739 154.401 62.7138 153.891 62.9581C153.392 63.1918 152.845 63.3086 152.25 63.3086C151.125 63.3086 150.238 63.0006 149.59 62.3845C148.942 61.7579 148.618 60.8391 148.618 59.6282V54.7689H150.147V59.453C150.147 60.2709 150.344 60.8922 150.737 61.3171C151.13 61.7313 151.693 61.9384 152.426 61.9384C153.233 61.9384 153.87 61.6941 154.338 61.2055C154.805 60.717 155.039 60.0266 155.039 59.1343V54.7689H156.568ZM167.446 51.3913V63.213H165.98V61.8747C165.64 62.342 165.21 62.6979 164.69 62.9422C164.169 63.1865 163.596 63.3086 162.969 63.3086C162.151 63.3086 161.418 63.128 160.77 62.7669C160.122 62.4058 159.613 61.9013 159.241 61.2533C158.88 60.5948 158.699 59.8407 158.699 58.991C158.699 58.1412 158.88 57.3924 159.241 56.7445C159.613 56.0966 160.122 55.5921 160.77 55.2309C161.418 54.8698 162.151 54.6892 162.969 54.6892C163.574 54.6892 164.132 54.8061 164.642 55.0398C165.152 55.2628 165.577 55.5974 165.917 56.0435V51.3913H167.446ZM163.097 61.9703C163.628 61.9703 164.111 61.8481 164.546 61.6039C164.982 61.3489 165.322 60.9984 165.566 60.5523C165.81 60.0956 165.932 59.5751 165.932 58.991C165.932 58.4068 165.81 57.8916 165.566 57.4455C165.322 56.9888 164.982 56.6383 164.546 56.394C164.111 56.1497 163.628 56.0276 163.097 56.0276C162.555 56.0276 162.066 56.1497 161.631 56.394C161.206 56.6383 160.866 56.9888 160.611 57.4455C160.367 57.8916 160.245 58.4068 160.245 58.991C160.245 59.5751 160.367 60.0956 160.611 60.5523C160.866 60.9984 161.206 61.3489 161.631 61.6039C162.066 61.8481 162.555 61.9703 163.097 61.9703ZM170.34 54.7689H171.869V63.213H170.34V54.7689ZM171.105 53.1438C170.807 53.1438 170.558 53.0482 170.356 52.857C170.165 52.6658 170.069 52.4322 170.069 52.156C170.069 51.8798 170.165 51.6462 170.356 51.455C170.558 51.2532 170.807 51.1523 171.105 51.1523C171.402 51.1523 171.646 51.2479 171.838 51.4391C172.039 51.6196 172.14 51.848 172.14 52.1241C172.14 52.4109 172.039 52.6552 171.838 52.857C171.646 53.0482 171.402 53.1438 171.105 53.1438ZM178.406 63.3086C177.567 63.3086 176.813 63.1227 176.144 62.751C175.475 62.3792 174.949 61.8694 174.567 61.2215C174.195 60.5629 174.009 59.8194 174.009 58.991C174.009 58.1625 174.195 57.4243 174.567 56.7764C174.949 56.1178 175.475 55.608 176.144 55.2469C176.813 54.8751 177.567 54.6892 178.406 54.6892C179.246 54.6892 179.994 54.8751 180.653 55.2469C181.322 55.608 181.842 56.1178 182.214 56.7764C182.597 57.4243 182.788 58.1625 182.788 58.991C182.788 59.8194 182.597 60.5629 182.214 61.2215C181.842 61.8694 181.322 62.3792 180.653 62.751C179.994 63.1227 179.246 63.3086 178.406 63.3086ZM178.406 61.9703C178.948 61.9703 179.431 61.8481 179.856 61.6039C180.292 61.3489 180.632 60.9984 180.876 60.5523C181.12 60.0956 181.242 59.5751 181.242 58.991C181.242 58.4068 181.12 57.8916 180.876 57.4455C180.632 56.9888 180.292 56.6383 179.856 56.394C179.431 56.1497 178.948 56.0276 178.406 56.0276C177.865 56.0276 177.376 56.1497 176.941 56.394C176.516 56.6383 176.176 56.9888 175.921 57.4455C175.677 57.8916 175.555 58.4068 175.555 58.991C175.555 59.5751 175.677 60.0956 175.921 60.5523C176.176 60.9984 176.516 61.3489 176.941 61.6039C177.376 61.8481 177.865 61.9703 178.406 61.9703ZM187.325 63.3086C186.634 63.3086 185.971 63.2183 185.333 63.0378C184.696 62.8466 184.197 62.6076 183.836 62.3208L184.473 61.11C184.845 61.3755 185.296 61.5879 185.827 61.7472C186.358 61.9066 186.895 61.9862 187.436 61.9862C188.775 61.9862 189.444 61.6039 189.444 60.8391C189.444 60.5842 189.353 60.3824 189.173 60.2337C188.992 60.085 188.764 59.9788 188.488 59.915C188.222 59.8407 187.84 59.761 187.341 59.676C186.661 59.5698 186.103 59.4477 185.668 59.3096C185.243 59.1715 184.877 58.9378 184.568 58.6086C184.26 58.2793 184.106 57.8173 184.106 57.2225C184.106 56.4577 184.425 55.847 185.062 55.3903C185.7 54.9229 186.555 54.6892 187.627 54.6892C188.19 54.6892 188.753 54.7583 189.316 54.8964C189.879 55.0344 190.341 55.2203 190.702 55.454L190.049 56.6648C189.359 56.2187 188.546 55.9957 187.612 55.9957C186.964 55.9957 186.47 56.1019 186.13 56.3143C185.79 56.5268 185.62 56.8082 185.62 57.1587C185.62 57.4349 185.716 57.6526 185.907 57.812C186.098 57.9713 186.332 58.0881 186.608 58.1625C186.895 58.2368 187.293 58.3218 187.803 58.4174C188.483 58.5342 189.03 58.6617 189.444 58.7998C189.869 58.9272 190.23 59.1503 190.527 59.4689C190.825 59.7876 190.973 60.2337 190.973 60.8072C190.973 61.572 190.644 62.1827 189.985 62.6395C189.338 63.0856 188.451 63.3086 187.325 63.3086Z" fill="white"/>
</svg>
