<svg width="420" height="134" viewBox="0 0 420 134" fill="none" xmlns="http://www.w3.org/2000/svg">
<path d="M0 60.2232C0 42.2499 14.5702 27.6797 32.5435 27.6797H39.2691V72.8789C39.2691 90.8522 24.6989 105.422 6.72565 105.422H0V60.2232Z" fill="white"/>
<rect x="48.3823" y="27.6797" width="30.1497" height="30.1497" rx="15.0748" fill="white"/>
<path d="M87.6455 86.5736C87.6455 97.4158 78.8562 106.205 68.014 106.205V106.205C57.1719 106.205 48.3826 97.4158 48.3826 86.5736L48.3826 68.461C48.3826 67.6222 49.0626 66.9421 49.9014 66.9421L68.014 66.9421C78.8562 66.9421 87.6455 75.7315 87.6455 86.5736V86.5736Z" fill="white"/>
<path d="M187.534 25.9899H202.727V91.6406H187.534V25.9899ZM157.71 91.6406H142.516V25.9899H157.71V91.6406ZM188.659 64.7238H156.584V51.875H188.659V64.7238ZM233.829 92.3909C229.64 92.3909 225.888 91.5781 222.574 89.9525C219.323 88.3268 216.791 85.8571 214.978 82.5433C213.164 79.167 212.258 74.884 212.258 69.6945V41.1833H226.888V67.5374C226.888 71.7266 227.764 74.8215 229.514 76.8223C231.328 78.7606 233.86 79.7297 237.111 79.7297C239.362 79.7297 241.363 79.2608 243.114 78.3229C244.864 77.3225 246.24 75.8219 247.24 73.8211C248.241 71.7578 248.741 69.1943 248.741 66.1306V41.1833H263.372V91.6406H249.491V77.7602L252.023 81.793C250.335 85.2944 247.834 87.9517 244.52 89.7649C241.269 91.5156 237.705 92.3909 233.829 92.3909ZM302.905 40.433C306.906 40.433 310.47 41.2459 313.597 42.8715C316.785 44.4346 319.286 46.8731 321.099 50.1869C322.913 53.4381 323.819 57.6273 323.819 62.7543V91.6406H309.189V65.0052C309.189 60.9411 308.282 57.9399 306.469 56.0016C304.718 54.0634 302.217 53.0943 298.966 53.0943C296.652 53.0943 294.558 53.5944 292.682 54.5948C290.869 55.5327 289.431 57.002 288.368 59.0028C287.368 61.0036 286.867 63.5671 286.867 66.6933V91.6406H272.237V41.1833H286.211V55.1576L283.585 50.9372C285.398 47.5608 287.993 44.9661 291.369 43.1528C294.745 41.3396 298.591 40.433 302.905 40.433ZM363.342 91.6406V81.793L362.404 79.6359V62.004C362.404 58.8778 361.435 56.4393 359.496 54.6886C357.621 52.9379 354.713 52.0626 350.774 52.0626C348.086 52.0626 345.428 52.5003 342.802 53.3756C340.239 54.1884 338.05 55.3139 336.237 56.7519L330.985 46.5292C333.736 44.5909 337.05 43.0903 340.927 42.0274C344.803 40.9645 348.742 40.433 352.744 40.433C360.434 40.433 366.405 42.2462 370.657 45.8727C374.909 49.4991 377.035 55.1576 377.035 62.8481V91.6406H363.342ZM347.961 92.3909C344.022 92.3909 340.645 91.7344 337.832 90.4214C335.018 89.0459 332.861 87.2014 331.36 84.888C329.86 82.5746 329.109 79.9798 329.109 77.1037C329.109 74.1025 329.829 71.4765 331.267 69.2256C332.767 66.9747 335.112 65.224 338.301 63.9735C341.489 62.6605 345.647 62.004 350.774 62.004H364.186V70.5386H352.369C348.93 70.5386 346.554 71.1013 345.241 72.2268C343.99 73.3522 343.365 74.759 343.365 76.4472C343.365 78.3229 344.084 79.8235 345.522 80.9489C347.023 82.0118 349.055 82.5433 351.618 82.5433C354.057 82.5433 356.245 81.9806 358.183 80.8551C360.122 79.6672 361.528 77.9478 362.404 75.6969L364.655 82.4495C363.592 85.7008 361.653 88.1705 358.84 89.8587C356.026 91.5468 352.4 92.3909 347.961 92.3909ZM385.587 91.6406V41.1833H399.561V55.4389L397.591 51.3123C399.092 47.7484 401.499 45.0598 404.813 43.2466C408.127 41.3709 412.16 40.433 416.911 40.433V53.9383C416.286 53.8758 415.724 53.8445 415.223 53.8445C414.723 53.782 414.192 53.7508 413.629 53.7508C409.627 53.7508 406.376 54.9075 403.875 57.2209C401.437 59.4718 400.217 63.0044 400.217 67.8188V91.6406H385.587Z" fill="white"/>
<path opacity="0.6" d="M138.014 125.244V103.361H147.237C149.571 103.361 151.624 103.819 153.396 104.736C155.188 105.653 156.574 106.935 157.553 108.581C158.554 110.228 159.054 112.135 159.054 114.302C159.054 116.47 158.554 118.377 157.553 120.023C156.574 121.67 155.188 122.952 153.396 123.869C151.624 124.786 149.571 125.244 147.237 125.244H138.014ZM141.141 122.524H147.049C148.862 122.524 150.426 122.18 151.739 121.493C153.072 120.805 154.104 119.846 154.834 118.617C155.563 117.366 155.928 115.928 155.928 114.302C155.928 112.656 155.563 111.218 154.834 109.988C154.104 108.759 153.072 107.8 151.739 107.112C150.426 106.424 148.862 106.08 147.049 106.08H141.141V122.524ZM170.783 125.432C169.011 125.432 167.448 125.067 166.093 124.338C164.76 123.608 163.717 122.608 162.967 121.336C162.238 120.065 161.873 118.606 161.873 116.96C161.873 115.313 162.227 113.854 162.936 112.583C163.665 111.312 164.655 110.322 165.906 109.613C167.177 108.884 168.605 108.519 170.189 108.519C171.794 108.519 173.211 108.873 174.44 109.582C175.67 110.29 176.629 111.291 177.317 112.583C178.025 113.854 178.379 115.344 178.379 117.053C178.379 117.178 178.369 117.324 178.348 117.491C178.348 117.658 178.338 117.814 178.317 117.96H164.218V115.803H176.754L175.535 116.553C175.555 115.49 175.337 114.542 174.878 113.708C174.42 112.875 173.784 112.229 172.971 111.77C172.179 111.291 171.252 111.051 170.189 111.051C169.147 111.051 168.219 111.291 167.406 111.77C166.594 112.229 165.958 112.885 165.499 113.74C165.041 114.573 164.812 115.532 164.812 116.616V117.116C164.812 118.221 165.062 119.211 165.562 120.086C166.083 120.94 166.802 121.607 167.719 122.087C168.636 122.566 169.689 122.806 170.876 122.806C171.856 122.806 172.742 122.639 173.534 122.305C174.347 121.972 175.055 121.472 175.66 120.805L177.317 122.743C176.566 123.619 175.628 124.285 174.503 124.744C173.398 125.202 172.158 125.432 170.783 125.432ZM187.299 125.432C185.923 125.432 184.61 125.244 183.36 124.869C182.13 124.494 181.161 124.035 180.452 123.493L181.703 121.118C182.411 121.597 183.287 122.003 184.329 122.337C185.371 122.67 186.434 122.837 187.518 122.837C188.914 122.837 189.914 122.639 190.519 122.243C191.144 121.847 191.457 121.295 191.457 120.586C191.457 120.065 191.269 119.659 190.894 119.367C190.519 119.075 190.019 118.856 189.393 118.71C188.789 118.564 188.112 118.439 187.361 118.335C186.611 118.21 185.861 118.064 185.11 117.898C184.36 117.71 183.672 117.46 183.047 117.147C182.422 116.814 181.922 116.366 181.546 115.803C181.171 115.219 180.984 114.448 180.984 113.49C180.984 112.489 181.265 111.614 181.828 110.863C182.391 110.113 183.182 109.54 184.204 109.144C185.246 108.727 186.475 108.519 187.893 108.519C188.976 108.519 190.071 108.654 191.175 108.925C192.301 109.175 193.218 109.54 193.926 110.019L192.645 112.395C191.894 111.895 191.113 111.551 190.3 111.364C189.487 111.176 188.674 111.082 187.861 111.082C186.548 111.082 185.569 111.301 184.923 111.739C184.277 112.156 183.954 112.698 183.954 113.364C183.954 113.927 184.141 114.365 184.516 114.677C184.912 114.969 185.413 115.199 186.017 115.365C186.642 115.532 187.33 115.678 188.08 115.803C188.831 115.907 189.581 116.053 190.331 116.241C191.081 116.407 191.759 116.647 192.363 116.96C192.988 117.272 193.489 117.71 193.864 118.273C194.26 118.835 194.458 119.586 194.458 120.524C194.458 121.524 194.166 122.389 193.582 123.118C192.999 123.848 192.176 124.421 191.113 124.838C190.05 125.234 188.778 125.432 187.299 125.432ZM198.208 125.244V108.675H201.21V125.244H198.208ZM199.709 105.486C199.126 105.486 198.636 105.299 198.24 104.924C197.865 104.549 197.677 104.09 197.677 103.548C197.677 102.985 197.865 102.516 198.24 102.141C198.636 101.766 199.126 101.579 199.709 101.579C200.293 101.579 200.772 101.766 201.147 102.141C201.543 102.496 201.741 102.944 201.741 103.486C201.741 104.048 201.554 104.528 201.178 104.924C200.803 105.299 200.313 105.486 199.709 105.486ZM214.193 131.497C212.671 131.497 211.192 131.278 209.754 130.84C208.336 130.423 207.18 129.819 206.283 129.027L207.722 126.713C208.493 127.38 209.441 127.901 210.566 128.277C211.692 128.673 212.869 128.871 214.099 128.871C216.058 128.871 217.496 128.412 218.413 127.495C219.33 126.578 219.789 125.182 219.789 123.306V119.805L220.101 116.522L219.945 113.208V108.675H222.79V122.993C222.79 125.911 222.06 128.058 220.602 129.433C219.143 130.809 217.006 131.497 214.193 131.497ZM213.818 124.556C212.213 124.556 210.775 124.223 209.503 123.556C208.253 122.868 207.253 121.92 206.502 120.711C205.773 119.502 205.408 118.106 205.408 116.522C205.408 114.917 205.773 113.521 206.502 112.333C207.253 111.124 208.253 110.186 209.503 109.519C210.775 108.852 212.213 108.519 213.818 108.519C215.235 108.519 216.527 108.811 217.694 109.394C218.861 109.957 219.789 110.832 220.477 112.02C221.185 113.208 221.539 114.709 221.539 116.522C221.539 118.314 221.185 119.805 220.477 120.992C219.789 122.18 218.861 123.077 217.694 123.681C216.527 124.265 215.235 124.556 213.818 124.556ZM214.162 121.93C215.266 121.93 216.246 121.701 217.1 121.243C217.955 120.784 218.622 120.148 219.101 119.336C219.601 118.523 219.851 117.585 219.851 116.522C219.851 115.459 219.601 114.521 219.101 113.708C218.622 112.896 217.955 112.27 217.1 111.833C216.246 111.374 215.266 111.145 214.162 111.145C213.057 111.145 212.067 111.374 211.192 111.833C210.337 112.27 209.66 112.896 209.16 113.708C208.68 114.521 208.441 115.459 208.441 116.522C208.441 117.585 208.68 118.523 209.16 119.336C209.66 120.148 210.337 120.784 211.192 121.243C212.067 121.701 213.057 121.93 214.162 121.93ZM237.372 108.519C238.726 108.519 239.914 108.779 240.935 109.3C241.978 109.821 242.79 110.613 243.374 111.676C243.957 112.739 244.249 114.084 244.249 115.709V125.244H241.248V116.053C241.248 114.448 240.852 113.239 240.06 112.427C239.289 111.614 238.195 111.207 236.778 111.207C235.715 111.207 234.787 111.416 233.995 111.833C233.203 112.249 232.588 112.864 232.151 113.677C231.734 114.49 231.526 115.501 231.526 116.71V125.244H228.524V108.675H231.4V113.146L230.932 111.958C231.473 110.874 232.307 110.03 233.433 109.425C234.558 108.821 235.871 108.519 237.372 108.519ZM265.014 125.494C263.347 125.494 261.753 125.244 260.231 124.744C258.71 124.223 257.511 123.556 256.636 122.743L257.793 120.305C258.626 121.034 259.689 121.639 260.981 122.118C262.274 122.597 263.618 122.837 265.014 122.837C266.286 122.837 267.317 122.691 268.109 122.399C268.901 122.107 269.485 121.712 269.86 121.211C270.235 120.69 270.423 120.107 270.423 119.461C270.423 118.71 270.173 118.106 269.672 117.647C269.193 117.189 268.557 116.824 267.765 116.553C266.994 116.261 266.14 116.011 265.202 115.803C264.264 115.595 263.316 115.355 262.357 115.084C261.419 114.792 260.554 114.427 259.762 113.99C258.991 113.552 258.366 112.968 257.886 112.239C257.407 111.489 257.167 110.53 257.167 109.363C257.167 108.237 257.459 107.206 258.043 106.268C258.647 105.309 259.564 104.549 260.794 103.986C262.044 103.402 263.628 103.11 265.546 103.11C266.817 103.11 268.078 103.277 269.328 103.611C270.579 103.944 271.663 104.423 272.58 105.049L271.548 107.55C270.61 106.924 269.62 106.476 268.578 106.205C267.536 105.914 266.525 105.768 265.546 105.768C264.316 105.768 263.305 105.924 262.513 106.237C261.721 106.549 261.138 106.966 260.763 107.487C260.408 108.008 260.231 108.592 260.231 109.238C260.231 110.009 260.471 110.624 260.95 111.082C261.45 111.541 262.086 111.906 262.857 112.177C263.649 112.447 264.514 112.698 265.452 112.927C266.39 113.135 267.328 113.375 268.266 113.646C269.224 113.917 270.089 114.271 270.86 114.709C271.652 115.146 272.288 115.73 272.767 116.459C273.247 117.189 273.486 118.127 273.486 119.273C273.486 120.378 273.184 121.409 272.58 122.368C271.975 123.306 271.037 124.067 269.766 124.65C268.516 125.213 266.932 125.494 265.014 125.494ZM283.306 125.432C281.638 125.432 280.346 124.984 279.429 124.087C278.512 123.191 278.054 121.909 278.054 120.242V105.049H281.055V120.117C281.055 121.013 281.274 121.701 281.711 122.18C282.17 122.66 282.816 122.899 283.649 122.899C284.587 122.899 285.369 122.639 285.994 122.118L286.932 124.275C286.474 124.671 285.921 124.963 285.275 125.15C284.65 125.338 283.993 125.432 283.306 125.432ZM275.24 111.145V108.675H285.807V111.145H275.24ZM297.532 125.432C296.115 125.432 294.864 125.171 293.78 124.65C292.717 124.129 291.884 123.337 291.279 122.274C290.696 121.19 290.404 119.836 290.404 118.21V108.675H293.405V117.866C293.405 119.492 293.791 120.711 294.562 121.524C295.354 122.337 296.459 122.743 297.876 122.743C298.918 122.743 299.824 122.535 300.596 122.118C301.367 121.68 301.961 121.055 302.378 120.242C302.794 119.409 303.003 118.408 303.003 117.241V108.675H306.004V125.244H303.159V120.774L303.628 121.962C303.086 123.066 302.273 123.921 301.19 124.525C300.106 125.13 298.887 125.432 297.532 125.432ZM318.564 125.432C316.959 125.432 315.521 125.077 314.25 124.369C312.999 123.66 312.009 122.67 311.28 121.399C310.55 120.128 310.186 118.648 310.186 116.96C310.186 115.271 310.55 113.802 311.28 112.552C312.009 111.28 312.999 110.29 314.25 109.582C315.521 108.873 316.959 108.519 318.564 108.519C319.96 108.519 321.221 108.831 322.347 109.457C323.472 110.082 324.368 111.02 325.035 112.27C325.723 113.521 326.067 115.084 326.067 116.96C326.067 118.835 325.733 120.398 325.066 121.649C324.42 122.899 323.535 123.848 322.409 124.494C321.284 125.119 320.002 125.432 318.564 125.432ZM318.814 122.806C319.856 122.806 320.794 122.566 321.628 122.087C322.482 121.607 323.149 120.93 323.628 120.055C324.128 119.158 324.379 118.127 324.379 116.96C324.379 115.772 324.128 114.75 323.628 113.896C323.149 113.021 322.482 112.343 321.628 111.864C320.794 111.385 319.856 111.145 318.814 111.145C317.751 111.145 316.803 111.385 315.969 111.864C315.135 112.343 314.468 113.021 313.968 113.896C313.468 114.75 313.218 115.772 313.218 116.96C313.218 118.127 313.468 119.158 313.968 120.055C314.468 120.93 315.135 121.607 315.969 122.087C316.803 122.566 317.751 122.806 318.814 122.806ZM324.472 125.244V120.774L324.66 116.928L324.347 113.083V102.048H327.349V125.244H324.472ZM333.027 125.244V108.675H336.028V125.244H333.027ZM334.528 105.486C333.944 105.486 333.454 105.299 333.058 104.924C332.683 104.549 332.496 104.09 332.496 103.548C332.496 102.985 332.683 102.516 333.058 102.141C333.454 101.766 333.944 101.579 334.528 101.579C335.111 101.579 335.591 101.766 335.966 102.141C336.362 102.496 336.56 102.944 336.56 103.486C336.56 104.048 336.372 104.528 335.997 104.924C335.622 105.299 335.132 105.486 334.528 105.486ZM348.855 125.432C347.188 125.432 345.708 125.067 344.416 124.338C343.124 123.608 342.102 122.608 341.352 121.336C340.602 120.044 340.227 118.585 340.227 116.96C340.227 115.313 340.602 113.854 341.352 112.583C342.102 111.312 343.124 110.322 344.416 109.613C345.708 108.884 347.188 108.519 348.855 108.519C350.501 108.519 351.971 108.884 353.263 109.613C354.576 110.322 355.597 111.312 356.327 112.583C357.077 113.833 357.452 115.292 357.452 116.96C357.452 118.606 357.077 120.065 356.327 121.336C355.597 122.608 354.576 123.608 353.263 124.338C351.971 125.067 350.501 125.432 348.855 125.432ZM348.855 122.806C349.918 122.806 350.866 122.566 351.7 122.087C352.554 121.607 353.221 120.93 353.701 120.055C354.18 119.158 354.42 118.127 354.42 116.96C354.42 115.772 354.18 114.75 353.701 113.896C353.221 113.021 352.554 112.343 351.7 111.864C350.866 111.385 349.918 111.145 348.855 111.145C347.792 111.145 346.844 111.385 346.01 111.864C345.176 112.343 344.51 113.021 344.009 113.896C343.509 114.75 343.259 115.772 343.259 116.96C343.259 118.127 343.509 119.158 344.009 120.055C344.51 120.93 345.176 121.607 346.01 122.087C346.844 122.566 347.792 122.806 348.855 122.806ZM366.355 125.432C364.979 125.432 363.666 125.244 362.415 124.869C361.186 124.494 360.217 124.035 359.508 123.493L360.759 121.118C361.467 121.597 362.343 122.003 363.385 122.337C364.427 122.67 365.49 122.837 366.573 122.837C367.97 122.837 368.97 122.639 369.575 122.243C370.2 121.847 370.512 121.295 370.512 120.586C370.512 120.065 370.325 119.659 369.95 119.367C369.575 119.075 369.074 118.856 368.449 118.71C367.845 118.564 367.167 118.439 366.417 118.335C365.667 118.21 364.916 118.064 364.166 117.898C363.416 117.71 362.728 117.46 362.103 117.147C361.478 116.814 360.977 116.366 360.602 115.803C360.227 115.219 360.04 114.448 360.04 113.49C360.04 112.489 360.321 111.614 360.884 110.863C361.446 110.113 362.238 109.54 363.26 109.144C364.302 108.727 365.531 108.519 366.949 108.519C368.032 108.519 369.126 108.654 370.231 108.925C371.357 109.175 372.274 109.54 372.982 110.019L371.7 112.395C370.95 111.895 370.169 111.551 369.356 111.364C368.543 111.176 367.73 111.082 366.917 111.082C365.604 111.082 364.625 111.301 363.979 111.739C363.333 112.156 363.009 112.698 363.009 113.364C363.009 113.927 363.197 114.365 363.572 114.677C363.968 114.969 364.468 115.199 365.073 115.365C365.698 115.532 366.386 115.678 367.136 115.803C367.886 115.907 368.637 116.053 369.387 116.241C370.137 116.407 370.815 116.647 371.419 116.96C372.044 117.272 372.544 117.71 372.92 118.273C373.316 118.835 373.514 119.586 373.514 120.524C373.514 121.524 373.222 122.389 372.638 123.118C372.055 123.848 371.231 124.421 370.169 124.838C369.106 125.234 367.834 125.432 366.355 125.432Z" fill="white"/>
</svg>
