<svg width="25" height="29" viewBox="0 0 25 29" fill="none" xmlns="http://www.w3.org/2000/svg">
<path d="M22 10L23.5 11.5L24 21L22 24.5L16.5 27.5L10.5 26.5L4 20.5L2 15.5L3.5 14H5L6.5 15.5H8.5V11.5L8 6L9 1.5H10.5L12 2.5L12.5 6.5H15L17 7.5L19 8L20.5 9.5L22 10Z" fill="white" fill-opacity="0.2"/>
<path d="M8.32324 17.4412V6.71655M19.7056 14.5V11.7501C19.7056 10.2324 20.9703 9.85302 21.6279 9.85302C22.689 9.85302 23.4997 10.7029 23.4997 11.7501L23.5 20" stroke="white" stroke-width="2" stroke-linecap="round" stroke-linejoin="round"/>
<path d="M23.4998 19.9707C23.4998 25.0295 19.5362 27.5589 14.6468 27.5589C9.7575 27.5589 8.07545 26.2942 4.28133 19.9707L2.29449 16.6761C1.6166 15.5784 2.15916 14.1543 3.40869 13.7496C3.81727 13.6161 4.25701 13.6115 4.6683 13.7364C5.07959 13.8613 5.44253 14.1096 5.70792 14.4477L8.32333 17.483" stroke="white" stroke-width="2" stroke-linecap="round" stroke-linejoin="round"/>
<path d="M15.9116 13.6471V9.22066C15.9116 8.71753 16.1115 8.23501 16.4673 7.87924C16.823 7.52348 17.3055 7.32361 17.8087 7.32361V7.32361C18.3118 7.32361 18.7943 7.52348 19.1501 7.87924C19.5059 8.23501 19.7057 8.71753 19.7057 9.22066V13.6471" stroke="white" stroke-width="2" stroke-linecap="round" stroke-linejoin="round"/>
<path d="M12.1174 13.6469V7.95577C12.1174 7.45264 12.3173 6.97012 12.6731 6.61435C13.0288 6.25858 13.5114 6.05872 14.0145 6.05872V6.05872C14.5176 6.05872 15.0001 6.25858 15.3559 6.61435C15.7117 6.97012 15.9115 7.45264 15.9115 7.95577V13.6469" stroke="white" stroke-width="2" stroke-linecap="round" stroke-linejoin="round"/>
<path d="M8.32324 13.647V2.89706C8.32324 2.39393 8.52311 1.9114 8.87888 1.55563C9.23464 1.19987 9.71717 1 10.2203 1C10.7234 1 11.206 1.19987 11.5617 1.55563C11.9175 1.9114 12.1174 2.39393 12.1174 2.89706V13.647" stroke="white" stroke-width="2" stroke-linecap="round" stroke-linejoin="round"/>
</svg>
